<svg width="72" height="73" viewBox="0 0 72 73" fill="none" xmlns="http://www.w3.org/2000/svg">
<circle cx="36" cy="36.5" r="26" fill="#64B5F5"/>
<path d="M44.5643 36.6667C44.1961 36.6667 43.8976 36.3682 43.8976 36C43.8976 35.6318 44.1961 35.3333 44.5643 35.3333H47.5376C47.9058 35.3333 48.2043 35.6318 48.2043 36C48.2043 36.3682 47.9058 36.6667 47.5376 36.6667H44.5643ZM45.7503 44.7659C45.5246 45.0531 45.1108 45.1075 44.8185 44.8883L42.4474 43.1097C42.1458 42.8835 42.0894 42.4535 42.3225 42.1571C42.5481 41.8704 42.9614 41.8161 43.2533 42.035L45.6249 43.813C45.9266 44.0392 45.9832 44.4693 45.7503 44.7659ZM43.1507 29.8623C42.8587 30.0812 42.4454 30.027 42.2198 29.7402C41.9868 29.4439 42.0431 29.0138 42.3447 28.7876L44.7159 27.009C45.0081 26.7898 45.4219 26.8442 45.6476 27.1315C45.8806 27.428 45.824 27.8581 45.5223 28.0843L43.1507 29.8623ZM28.0003 43.9493C27.6321 43.9493 27.3336 43.6509 27.3336 43.2827V40.256C27.3336 39.4916 26.714 38.872 25.9496 38.872C25.3531 38.872 24.8447 38.6622 24.4243 38.2427C24.0038 37.8231 23.794 37.3151 23.7949 36.7187V35.2827C23.7949 34.6862 24.0047 34.1778 24.4243 33.7573C24.8438 33.3369 25.3518 33.1271 25.9483 33.128H30.3752C30.7338 33.128 31.0857 33.0316 31.3942 32.8489L33.1866 31.7876C34.5198 30.9982 36.2056 31.9592 36.2056 33.5086V38.4914C36.2056 40.0408 34.5198 41.0018 33.1866 40.2124L31.3403 39.1191C31.0671 38.9573 30.7554 38.872 30.4379 38.872C29.4598 38.872 28.6669 39.6649 28.6669 40.643V43.2827C28.6669 43.6509 28.3684 43.9493 28.0003 43.9493ZM31.864 37.8693C33.1973 38.6476 34.8723 37.6859 34.8723 36.142V35.858C34.8723 34.3141 33.1973 33.3524 31.864 34.1307L31.7648 34.1886C31.4588 34.3672 31.1109 34.4613 30.7566 34.4613H25.9483C25.7438 34.4613 25.5558 34.5471 25.3843 34.7187C25.2127 34.8902 25.1274 35.0782 25.1283 35.2827V36.7187C25.1283 36.9231 25.2136 37.1111 25.3843 37.2827C25.5549 37.4542 25.7429 37.5396 25.9483 37.5387H30.7566C31.1109 37.5387 31.4588 37.6328 31.7648 37.8114L31.864 37.8693ZM39.6429 38.2213C39.3617 38.9194 38.5643 38.6333 38.5643 37.8807V34.1192C38.5643 33.3684 39.3608 33.0829 39.6429 33.7787C39.9158 34.4516 40.0518 35.192 40.0509 36C40.05 36.808 39.914 37.5484 39.6429 38.2213Z" fill="white"/>
</svg>
