<svg width="24" height="395" viewBox="0 0 24 395" fill="none" xmlns="http://www.w3.org/2000/svg">
<path d="M12 226.332L14.8867 221.332L9.11324 221.332L12 226.332ZM11.5 0.332031L11.5 221.832L12.5 221.832L12.5 0.332031L11.5 0.332031Z" fill="white"/>
<g clip-path="url(#clip0_136_4619)">
<path d="M20.4446 250.902H3.55653C3.15039 250.902 2.82227 251.23 2.82227 251.637V268.525C2.82227 268.931 3.15039 269.259 3.55653 269.259H20.4446C20.8508 269.259 21.1789 268.931 21.1789 268.525V251.637C21.1789 251.23 20.8508 250.902 20.4446 250.902ZM8.2673 266.544H5.54364V257.784H8.2673V266.544ZM6.90662 256.586C6.59439 256.586 6.28917 256.493 6.02956 256.32C5.76994 256.146 5.5676 255.9 5.44812 255.611C5.32863 255.323 5.29737 255.006 5.35828 254.699C5.41919 254.393 5.56955 254.112 5.79033 253.891C6.01111 253.67 6.2924 253.52 6.59864 253.459C6.90487 253.398 7.22229 253.429 7.51075 253.549C7.79921 253.668 8.04577 253.871 8.21924 254.13C8.3927 254.39 8.48529 254.695 8.48529 255.007C8.483 255.879 7.77626 256.586 6.90662 256.586ZM18.4644 266.544H15.743V262.283C15.743 261.267 15.7247 259.961 14.3273 259.961C12.9115 259.961 12.6936 261.067 12.6936 262.21V266.544H9.97447V257.784H12.5857V258.982H12.6224C12.985 258.293 13.873 257.566 15.1992 257.566C17.9573 257.566 18.4644 259.381 18.4644 261.74V266.544Z" fill="white"/>
<path d="M4.65777 289.453C3.03779 289.453 1.7207 290.77 1.7207 292.39V307.075C1.7207 308.695 3.03779 310.012 4.65777 310.012H19.3431C20.9631 310.012 22.2801 308.695 22.2801 307.075V292.39C22.2801 290.77 20.9631 289.453 19.3431 289.453H4.65777ZM18.2922 293.308L13.5286 298.751L19.132 306.157H14.7447L11.312 301.665L7.37914 306.157H5.19929L10.2933 300.334L4.91935 293.308H9.41673L12.5236 297.415L16.1123 293.308H18.2922ZM16.5575 304.854L8.76048 294.542H7.46174L15.3459 304.854H16.5529H16.5575Z" fill="white"/>
<path d="M13.4687 347.103C18.1788 346.395 21.7904 342.331 21.7904 337.423C21.7904 332.016 17.4073 327.633 12.0002 327.633C6.59304 327.633 2.20996 332.016 2.20996 337.423C2.20996 342.331 5.82157 346.396 10.5316 347.103V340.36H9.06311C8.67363 340.36 8.3001 340.205 8.0247 339.93C7.7493 339.654 7.59458 339.281 7.59458 338.891C7.59458 338.502 7.7493 338.128 8.0247 337.853C8.3001 337.578 8.67363 337.423 9.06311 337.423H10.5316V335.465C10.5316 334.556 10.8927 333.685 11.5353 333.042C12.1779 332.399 13.0494 332.038 13.9582 332.038H14.4477C14.8372 332.038 15.2107 332.193 15.4861 332.468C15.7615 332.744 15.9163 333.117 15.9163 333.507C15.9163 333.896 15.7615 334.27 15.4861 334.545C15.2107 334.821 14.8372 334.975 14.4477 334.975H13.9582C13.8284 334.975 13.7039 335.027 13.6121 335.119C13.5203 335.211 13.4687 335.335 13.4687 335.465V337.423H14.9372C15.3267 337.423 15.7002 337.578 15.9756 337.853C16.251 338.128 16.4058 338.502 16.4058 338.891C16.4058 339.281 16.251 339.654 15.9756 339.93C15.7002 340.205 15.3267 340.36 14.9372 340.36H13.4687V347.103Z" fill="white"/>
<path d="M6.55964 373.036C7.92733 372.902 9.68663 372.902 11.9609 372.902H12.0412C14.3145 372.902 16.0738 372.902 17.4415 373.036C18.8189 373.171 19.9057 373.45 20.7789 374.086C21.6875 374.749 22.1271 375.627 22.3326 376.745C22.5255 377.789 22.5255 379.112 22.5255 380.729V380.882C22.5255 382.499 22.5255 383.822 22.3326 384.866C22.1271 385.984 21.6875 386.862 20.7789 387.525C19.9057 388.161 18.8189 388.44 17.4405 388.575C16.0738 388.709 14.3145 388.709 12.0412 388.709H11.9609C9.68761 388.709 7.92831 388.709 6.56062 388.575C5.18314 388.44 4.09642 388.161 3.22314 387.525C2.3146 386.862 1.87502 385.984 1.66943 384.866C1.47656 383.822 1.47656 382.499 1.47656 380.882V380.729C1.47656 379.112 1.47656 377.789 1.66943 376.745C1.87502 375.627 2.3146 374.749 3.22314 374.086C4.09642 373.45 5.18314 373.171 6.5616 373.036M11.5693 377.69C11.3193 377.517 11.0139 377.453 10.7193 377.513C10.4246 377.573 10.1644 377.751 9.99502 378.009C9.86775 378.204 9.79922 378.435 9.79922 378.672V382.939C9.79913 383.153 9.85466 383.363 9.95992 383.546C10.0652 383.73 10.2162 383.88 10.397 383.981C10.5778 384.083 10.7815 384.131 10.9865 384.121C11.1916 384.112 11.3903 384.044 11.5615 383.926L14.6698 381.811C14.827 381.705 14.9563 381.559 15.046 381.387C15.1358 381.216 15.1832 381.024 15.1839 380.829C15.1847 380.633 15.1389 380.441 15.0505 380.269C14.9621 380.096 14.834 379.95 14.6777 379.842L11.5693 377.69Z" fill="white"/>
</g>
<defs>
<clipPath id="clip0_136_4619">
<rect width="23.4965" height="146.668" fill="white" transform="translate(0.251953 248.332)"/>
</clipPath>
</defs>
</svg>
