<svg width="90" height="90" viewBox="0 0 90 90" fill="none" xmlns="http://www.w3.org/2000/svg">
<rect width="90" height="90" rx="16" fill="#64B5F5"/>
<g clip-path="url(#clip0_285_5645)">
<path d="M71.4444 35.6667C71.4444 34.1111 69.8889 29.4445 65.2222 29.4445H31.6238C29.4818 29.4445 26.506 32.2305 24.9318 35.6667L20.1111 43.4445C17.8509 44.3762 17 47.0705 17 49.6667V59C17 60.6502 17.6556 62.2329 18.8224 63.3998C19.9893 64.5667 21.572 65.2222 23.2222 65.2222H66.7778C68.428 65.2222 70.0107 64.5667 71.1776 63.3998C72.3444 62.2329 73 60.6502 73 59V46.5556C73 44.958 71.4444 35.6667 71.4444 35.6667Z" fill="white"/>
<path d="M31.0012 55.8889C28.5643 55.8899 26.2246 56.8444 24.4825 58.5482C22.7403 60.252 21.734 62.5698 21.6787 65.006C22.1765 65.132 22.6867 65.2222 23.2234 65.2222H40.3345C40.3345 62.7469 39.3512 60.3729 37.6008 58.6226C35.8505 56.8722 33.4765 55.8889 31.0012 55.8889ZM68.3236 65.0045C68.2683 62.5684 67.262 60.2507 65.5197 58.5472C63.7775 56.8436 61.4378 55.8895 59.0012 55.8889C53.8492 55.8889 49.6678 60.0687 49.6678 65.2222H66.7789C67.3156 65.2222 67.8274 65.132 68.3236 65.0045Z" fill="#E1E8ED"/>
<path d="M30.9986 71.4444C34.435 71.4444 37.2208 68.6587 37.2208 65.2222C37.2208 61.7858 34.435 59 30.9986 59C27.5622 59 24.7764 61.7858 24.7764 65.2222C24.7764 68.6587 27.5622 71.4444 30.9986 71.4444Z" fill="#292F33"/>
<path d="M30.9998 68.3333C32.718 68.3333 34.1109 66.9404 34.1109 65.2222C34.1109 63.504 32.718 62.1111 30.9998 62.1111C29.2816 62.1111 27.8887 63.504 27.8887 65.2222C27.8887 66.9404 29.2816 68.3333 30.9998 68.3333Z" fill="#99AAB5"/>
<path d="M58.9986 71.4444C62.435 71.4444 65.2208 68.6587 65.2208 65.2222C65.2208 61.7858 62.435 59 58.9986 59C55.5622 59 52.7764 61.7858 52.7764 65.2222C52.7764 68.6587 55.5622 71.4444 58.9986 71.4444Z" fill="#292F33"/>
<path d="M58.9998 68.3333C60.718 68.3333 62.1109 66.9404 62.1109 65.2222C62.1109 63.504 60.718 62.1111 58.9998 62.1111C57.2816 62.1111 55.8887 63.504 55.8887 65.2222C55.8887 66.9404 57.2816 68.3333 58.9998 68.3333Z" fill="#99AAB5"/>
<path d="M17 49.6667H73V54.3333H17V49.6667ZM65.2222 37.2222H60.5556V32.5555H57.4444V37.2222H52.7778V40.3333H57.4444V45H60.5556V40.3333H65.2222V37.2222Z" fill="#DD2E44"/>
<path d="M29.4459 32.5555H37.2236V43.4444H23.2236L29.4459 32.5555Z" fill="#64B5F5"/>
<path d="M40.3334 27.1113C40.3334 27.7301 40.0876 28.3236 39.65 28.7612C39.2124 29.1988 38.6189 29.4446 38.0001 29.4446H34.889C34.2702 29.4446 33.6767 29.1988 33.2391 28.7612C32.8015 28.3236 32.5557 27.7301 32.5557 27.1113C32.5557 26.4924 32.8015 25.899 33.2391 25.4614C33.6767 25.0238 34.2702 24.778 34.889 24.778H38.0001C38.6189 24.778 39.2124 25.0238 39.65 25.4614C40.0876 25.899 40.3334 26.4924 40.3334 27.1113Z" fill="#DD2E44"/>
<path d="M45.0014 27.1113C45.0014 27.7301 44.7556 28.3236 44.318 28.7612C43.8804 29.1988 43.2869 29.4446 42.6681 29.4446H39.557C38.9381 29.4446 38.3446 29.1988 37.9071 28.7612C37.4695 28.3236 37.2236 27.7301 37.2236 27.1113C37.2236 26.4924 37.4695 25.899 37.9071 25.4614C38.3446 25.0238 38.9381 24.778 39.557 24.778H42.6681C43.2869 24.778 43.8804 25.0238 44.318 25.4614C44.7556 25.899 45.0014 26.4924 45.0014 27.1113Z" fill="#64B5F5"/>
</g>
<defs>
<clipPath id="clip0_285_5645">
<rect width="56" height="56" fill="white" transform="translate(17 17)"/>
</clipPath>
</defs>
</svg>
