<svg width="90" height="90" viewBox="0 0 90 90" fill="none" xmlns="http://www.w3.org/2000/svg">
<rect width="90" height="90" rx="16" fill="#64B5F5"/>
<path fill-rule="evenodd" clip-rule="evenodd" d="M44.9911 47.3333H45.0378C51.4813 47.3333 56.7044 42.1102 56.7044 35.6667C56.7044 29.2232 51.4813 24 45.0378 24H44.9444C38.5441 24.0502 33.3711 29.2547 33.3711 35.6667C33.3711 42.0787 38.5441 47.2832 44.9444 47.3333H44.9911ZM54.2988 36.8333H51.9654C51.9172 37.6399 51.8219 38.4177 51.6796 39.1667H53.6933C53.9908 38.4317 54.1973 37.6488 54.2999 36.8333M52.3248 41.5H51.0648C50.8256 42.1883 50.5456 42.8335 50.2294 43.425C51.0217 42.8941 51.7292 42.2449 52.3248 41.5ZM49.2996 39.1667C49.4594 38.4352 49.5726 37.6535 49.6274 36.8333H46.2044V39.1667H49.2996ZM46.2044 41.5H48.5646C48.3878 41.9188 48.1823 42.325 47.9498 42.7157C47.3664 43.6852 46.7633 44.2848 46.2044 44.6243V41.5ZM43.8711 39.1667V36.8333H40.3734C40.4283 37.6535 40.5414 38.4352 40.7013 39.1667H43.8711ZM41.4363 41.5H43.8711V44.6687C43.2924 44.3373 42.6601 43.7295 42.0511 42.7157C41.8185 42.325 41.6131 41.9188 41.4363 41.5ZM38.3213 39.1667C38.1789 38.4177 38.0837 37.6399 38.0354 36.8333H35.7768C35.8783 37.6488 36.0848 38.4317 36.3834 39.1667H38.3213ZM37.7519 41.5H38.9373C39.1648 42.158 39.4319 42.7763 39.7306 43.3445C38.985 42.829 38.3184 42.2077 37.7519 41.5ZM51.9654 34.5C51.9193 33.717 51.8238 32.9377 51.6796 32.1667H53.6933C53.9908 32.9017 54.1973 33.6845 54.2999 34.5H51.9654ZM52.3236 29.8333H51.0636C50.8358 29.1708 50.5565 28.5272 50.2283 27.9083C51.021 28.4391 51.7276 29.0883 52.3236 29.8333ZM46.2044 29.8333H48.5646C48.3878 29.4145 48.1823 29.0083 47.9498 28.6177C47.3664 27.647 46.7633 27.0485 46.2044 26.709V29.8333ZM49.2996 32.1667H46.2044V34.5H49.6274C49.5745 33.7153 49.4649 32.9355 49.2996 32.1667ZM43.8711 26.6647V29.8333H41.4363C41.6245 29.3923 41.8294 28.9871 42.0511 28.6177C42.6589 27.6038 43.2924 26.996 43.8711 26.6647ZM43.8711 32.1667H40.7013C40.536 32.9355 40.4264 33.7153 40.3734 34.5H43.8711V32.1667ZM39.7294 27.9888C39.4197 28.5832 39.1545 29.1997 38.9361 29.8333H37.7519C38.3184 29.1257 38.9838 28.5043 39.7294 27.9888ZM38.3224 32.1667H36.3834C36.0812 32.9149 35.8773 33.6993 35.7768 34.5H38.0366C38.0848 33.6934 38.1801 32.9157 38.3224 32.1667Z" fill="white"/>
<path d="M28.7938 55.0579C29.4553 55.7602 30.1122 56.4579 30.7305 57.3445V59H39.4023V57.3445C39.2472 56.0565 38.9742 53.736 38.9497 53.0909C38.917 52.1832 37.699 50.5289 37.699 50.5289L33.9598 45.8155C33.9598 45.8155 32.9017 44.6979 32.2962 43.4589C31.6895 42.2187 30.4015 43.7785 30.2312 44.8939C30.0585 46.0092 30.3852 46.5972 30.3852 46.5972L32.5202 50.8415C32.5202 50.8415 30.0445 47.45 29.2757 46.0874C28.886 45.3967 28.7775 43.9337 28.655 42.2992C28.5372 40.7067 28.4065 38.9509 27.9923 37.5859C27.1523 34.8209 24.7233 35.5127 24.3022 36.7494C23.8822 37.9849 23.9767 46.1504 24.1295 47.5119C24.2497 48.5782 24.8925 49.6212 25.617 50.7972C25.8177 51.1239 26.0253 51.4599 26.2295 51.8087C27.0415 53.1994 27.9212 54.1339 28.7938 55.0579ZM59.2718 57.3445C59.8902 56.4579 60.547 55.7602 61.2085 55.0579C62.0812 54.1339 62.9608 53.1994 63.774 51.8087C63.977 51.4587 64.1847 51.1239 64.3853 50.7984C65.1098 49.6224 65.7527 48.5782 65.8728 47.5119C66.0257 46.1504 66.1213 37.9849 65.7002 36.7494C65.279 35.5127 62.85 34.8209 62.01 37.587C61.597 38.952 61.4663 40.7067 61.3473 42.2992C61.2248 43.9337 61.1163 45.3967 60.7267 46.0874C59.9578 47.4512 57.481 50.8415 57.481 50.8415L59.6172 46.5972C59.6172 46.5972 59.9438 46.0092 59.7723 44.8939C59.6008 43.7785 58.3128 42.2187 57.7073 43.4589C57.1007 44.6979 56.0425 45.8155 56.0425 45.8155L52.3033 50.5289C52.3033 50.5289 51.0853 52.1832 51.0527 53.0909C51.0293 53.736 50.7552 56.0565 50.6 57.3445V59H59.2718V57.3445ZM47.3333 64.8334C47.3333 65.1428 47.4562 65.4395 47.675 65.6583C47.8938 65.8771 48.1906 66 48.5 66H57.8333C58.1427 66 58.4395 65.8771 58.6583 65.6583C58.8771 65.4395 59 65.1428 59 64.8334V62.5C59 62.1906 58.8771 61.8939 58.6583 61.6751C58.4395 61.4563 58.1427 61.3334 57.8333 61.3334H48.5C48.1906 61.3334 47.8938 61.4563 47.675 61.6751C47.4562 61.8939 47.3333 62.1906 47.3333 62.5V64.8334ZM42.669 64.8334C42.669 65.1428 42.5461 65.4395 42.3273 65.6583C42.1085 65.8771 41.8118 66 41.5023 66H32.169C31.8596 66 31.5628 65.8771 31.344 65.6583C31.1252 65.4395 31.0023 65.1428 31.0023 64.8334V62.5C31.0023 62.1906 31.1252 61.8939 31.344 61.6751C31.5628 61.4563 31.8596 61.3334 32.169 61.3334H41.5023C41.8118 61.3334 42.1085 61.4563 42.3273 61.6751C42.5461 61.8939 42.669 62.1906 42.669 62.5V64.8334Z" fill="white"/>
</svg>
