<svg width="90" height="90" viewBox="0 0 90 90" fill="none" xmlns="http://www.w3.org/2000/svg">
<rect width="90" height="90" rx="16" fill="#64B5F5"/>
<path d="M55.4163 24.1667C55.4163 23.0161 54.4836 22.0834 53.333 22.0834H26.2497C25.1446 22.0834 24.0848 22.5224 23.3034 23.3038C22.522 24.0852 22.083 25.145 22.083 26.25V42.9167C22.083 44.0673 23.0157 45 24.1663 45V45C25.3169 45 26.2497 44.0673 26.2497 42.9167V32.25C26.2497 28.9363 28.936 26.25 32.2497 26.25H53.333C54.4836 26.25 55.4163 25.3173 55.4163 24.1667V24.1667Z" fill="white"/>
<rect opacity="0.5" x="33.3926" y="33.3928" width="31.25" height="24.1071" fill="white"/>
<path d="M63.7503 30.4166H34.5837C33.4786 30.4166 32.4188 30.8556 31.6374 31.637C30.856 32.4184 30.417 33.4782 30.417 34.5833V55.4166C30.417 56.5217 30.856 57.5815 31.6374 58.3629C32.4188 59.1443 33.4786 59.5833 34.5837 59.5833H44.5107C45.3909 59.5833 46.1045 60.2968 46.1045 61.177V61.177C46.1045 62.0572 45.3909 62.7708 44.5107 62.7708H44.4482C43.6026 62.7708 42.917 63.4564 42.917 64.302V64.302C42.917 65.1477 43.6026 65.8333 44.4482 65.8333H53.8753C54.7268 65.8333 55.417 65.1431 55.417 64.2916V64.2916C55.417 63.4402 54.7268 62.75 53.8753 62.75H53.8337C52.9592 62.75 52.2503 62.0411 52.2503 61.1666V61.1666C52.2503 60.2922 52.9592 59.5833 53.8337 59.5833H63.7503C64.8554 59.5833 65.9152 59.1443 66.6966 58.3629C67.478 57.5815 67.917 56.5217 67.917 55.4166V34.5833C67.917 33.4782 67.478 32.4184 66.6966 31.637C65.9152 30.8556 64.8554 30.4166 63.7503 30.4166ZM63.7503 49.4166C63.7503 52.7303 61.064 55.4166 57.7503 55.4166H40.5837C37.2699 55.4166 34.5837 52.7303 34.5837 49.4166V40.5833C34.5837 37.2696 37.27 34.5833 40.5837 34.5833H57.7503C61.064 34.5833 63.7503 37.2696 63.7503 40.5833V49.4166Z" fill="white"/>
</svg>
