<svg width="40" height="40" viewBox="0 0 40 40" fill="none" xmlns="http://www.w3.org/2000/svg">
<path d="M10.9133 28.174H26.8883L10.2717 11.5573C10.1794 11.4749 10.105 11.3745 10.0528 11.2623C10.0007 11.1501 9.97195 11.0285 9.9684 10.9049C9.96485 10.7812 9.98655 10.6581 10.0322 10.5432C10.0778 10.4282 10.1464 10.3237 10.2337 10.2361C10.3211 10.1485 10.4254 10.0797 10.5402 10.0338C10.6551 9.98785 10.7781 9.96583 10.9018 9.96906C11.0254 9.97229 11.1472 10.0007 11.2595 10.0525C11.3718 10.1044 11.4723 10.1786 11.555 10.2706L28.1733 26.8873V10.914C28.1733 10.6717 28.2696 10.4394 28.4408 10.2681C28.6121 10.0969 28.8444 10.0006 29.0867 10.0006C29.3289 10.0006 29.5612 10.0969 29.7325 10.2681C29.9038 10.4394 30 10.6717 30 10.914V29.0873C30 29.5923 29.5917 30.0006 29.0867 30.0006H10.9133C10.6711 30.0006 10.4388 29.9044 10.2675 29.7331C10.0962 29.5618 10 29.3295 10 29.0873C10 28.8451 10.0962 28.6128 10.2675 28.4415C10.4388 28.2702 10.6711 28.174 10.9133 28.174Z" fill="#18181B"/>
</svg>
