<svg width="72" height="73" viewBox="0 0 72 73" fill="none" xmlns="http://www.w3.org/2000/svg">
<circle cx="36" cy="36.5" r="26" fill="#64B5F5"/>
<g clip-path="url(#clip0_2_390)">
<path d="M47.943 28.9635C47.9999 29.1005 48.0148 29.2513 47.986 29.3968C47.9572 29.5423 47.8858 29.676 47.781 29.781L44.781 32.781C44.7112 32.8506 44.6284 32.9058 44.5373 32.9433C44.4462 32.9809 44.3486 33.0002 44.25 33H40.0605L38.031 35.0295C38.2598 35.5084 38.3119 36.0528 38.1781 36.5665C38.0443 37.0801 37.7332 37.5299 37.2998 37.8363C36.8664 38.1428 36.3387 38.2862 35.8098 38.2412C35.281 38.1961 34.785 37.9656 34.4097 37.5903C34.0344 37.2149 33.8039 36.719 33.7588 36.1902C33.7138 35.6613 33.8572 35.1335 34.1636 34.7002C34.4701 34.2668 34.9199 33.9557 35.4335 33.8219C35.9472 33.6881 36.4916 33.7402 36.9705 33.969L39 31.9395V27.75C38.9998 27.6514 39.0191 27.5538 39.0567 27.4627C39.0942 27.3716 39.1494 27.2888 39.219 27.219L42.219 24.219C42.3239 24.1138 42.4576 24.0422 42.6033 24.0131C42.749 23.9841 42.9 23.9989 43.0372 24.0558C43.1744 24.1127 43.2916 24.209 43.374 24.3326C43.4564 24.4562 43.5003 24.6015 43.5 24.75V28.5H47.25C47.3984 28.5 47.5435 28.5441 47.6668 28.6266C47.7902 28.7091 47.8863 28.8263 47.943 28.9635ZM45.4395 30H42.75C42.5511 30 42.3603 29.921 42.2197 29.7803C42.079 29.6397 42 29.4489 42 29.25V26.5605L40.5 28.0605V31.5H43.9395L45.4395 30ZM47.4105 32.2725C47.793 33.4455 48 34.6995 48 36C47.9994 38.5349 47.1962 41.0045 45.7054 43.0547C44.2146 45.1049 42.1128 46.6303 39.7015 47.4122C37.2902 48.1941 34.6932 48.1924 32.283 47.4072C29.8728 46.622 27.7731 45.0937 26.2851 43.0415C24.797 40.9893 23.9971 38.5186 24 35.9837C24.0029 33.4488 24.8084 30.9799 26.3011 28.9311C27.7938 26.8823 29.897 25.3588 32.309 24.5791C34.721 23.7994 37.318 23.8036 39.7275 24.591L38.5155 25.803C36.2889 25.254 33.9438 25.449 31.8384 26.3584C29.7331 27.2677 27.9834 28.8413 26.8566 30.8387C25.7299 32.8361 25.288 35.1474 25.5986 37.4196C25.9091 39.6918 26.955 41.7998 28.5765 43.4216C30.1979 45.0433 32.3057 46.0897 34.5779 46.4007C36.85 46.7117 39.1614 46.2703 41.159 45.1439C43.1567 44.0175 44.7306 42.2681 45.6403 40.1629C46.5501 38.0578 46.7456 35.7127 46.197 33.486L47.4105 32.2725ZM43.35 34.5C43.45 34.986 43.5 35.486 43.5 36C43.4997 37.5477 43.0206 39.0573 42.1284 40.3219C41.2362 41.5866 39.9747 42.5442 38.5167 43.0636C37.0588 43.5829 35.4759 43.6385 33.9852 43.2227C32.4944 42.807 31.1687 41.9402 30.19 40.7413C29.2113 39.5424 28.6275 38.07 28.5186 36.5262C28.4097 34.9824 28.7811 33.4427 29.5818 32.1182C30.3825 30.7938 31.5733 29.7495 32.9909 29.1286C34.4086 28.5076 35.9836 28.3405 37.5 28.65V30.189C36.2257 29.8602 34.8787 29.9596 33.6664 30.4717C32.4541 30.9838 31.4438 31.8803 30.7911 33.023C30.1384 34.1658 29.8796 35.4914 30.0544 36.7958C30.2292 38.1002 30.828 39.3109 31.7586 40.2414C32.6891 41.172 33.8998 41.7708 35.2042 41.9456C36.5085 42.1204 37.8342 41.8615 38.9769 41.2089C40.1197 40.5562 41.0162 39.5459 41.5283 38.3336C42.0404 37.1213 42.1397 35.7743 41.811 34.5H43.35Z" fill="white"/>
</g>
<defs>
<clipPath id="clip0_2_390">
<rect width="28" height="26" fill="white" transform="translate(22 23.5)"/>
</clipPath>
</defs>
</svg>
