<svg width="314" height="92" viewBox="0 0 314 92" fill="none" xmlns="http://www.w3.org/2000/svg">
<path d="M257.545 44.0141C256.628 42.1103 256.154 40.0239 256.157 37.9109C256.157 30.1297 262.462 23.825 270.243 23.825C272.067 23.825 273.81 24.1766 275.413 24.8094C277.462 23.0234 280.148 21.9219 283.063 21.9219C286.626 21.9219 289.813 23.5156 291.923 26C293.563 25.1094 295.438 24.5938 297.407 24.5938C303.688 24.6406 308.798 29.7031 308.798 35.9844C308.798 38.3281 308.095 40.5313 306.829 42.3594C309.173 44.2344 310.813 47 311.142 50.2344C311.751 56.5156 307.11 62.1875 300.735 62.7969C299.235 62.9375 297.829 62.7969 296.47 62.4219C295.954 67.4375 291.735 71.3281 286.579 71.3281C283.298 71.3281 280.392 69.7344 278.61 67.2969C276.923 68.6094 274.813 69.4531 272.47 69.4531C267.313 69.4531 263.048 65.4688 262.673 60.4531C258.688 58.625 255.876 54.5938 255.876 49.9062C255.876 47.7547 256.499 45.725 257.545 44.0141Z" fill="#4FB1FF" stroke="black" stroke-width="0.5625" stroke-miterlimit="10"/>
<path d="M294.401 40.1004C295.181 41.0104 295.701 42.1804 295.701 43.3504C295.701 44.5204 295.181 45.6904 294.401 46.6004L272.301 51.8004V34.9004L294.401 40.1004Z" fill="white"/>
<path d="M291.8 45.2992C291.8 43.8633 290.636 42.6992 289.2 42.6992C287.764 42.6992 286.6 43.8633 286.6 45.2992V50.4992C286.6 51.9352 287.764 53.0992 289.2 53.0992C290.636 53.0992 291.8 51.9352 291.8 50.4992V45.2992Z" fill="white"/>
<path d="M302.61 65.6094C304.72 65.3751 306.595 66.9219 306.829 69.0313C307.063 71.1407 305.516 73.0157 303.407 73.2032C301.298 73.4375 299.423 71.8907 299.188 69.7813C298.954 67.6719 300.501 65.7969 302.61 65.6094ZM309.782 73.5782C311.188 73.4376 312.454 74.4688 312.595 75.875C312.735 77.2813 311.704 78.5 310.298 78.6407C308.891 78.7813 307.626 77.75 307.485 76.3438C307.345 74.9844 308.376 73.7188 309.782 73.5782Z" fill="#4FB1FF" stroke="black" stroke-width="0.421875" stroke-miterlimit="10"/>
</svg>
