<svg width="72" height="73" viewBox="0 0 72 73" fill="none" xmlns="http://www.w3.org/2000/svg">
<circle cx="36" cy="36.5" r="26" fill="#64B5F5"/>
<path d="M36.0001 29.75C37.4293 29.75 38.7938 29.7933 40.0938 29.88C41.3655 29.9642 42.5313 30.1392 43.5913 30.405C44.608 30.6583 45.4909 31.0371 46.2401 31.5412C46.9524 32.0217 47.5251 32.6819 47.9001 33.455C48.3076 34.2762 48.5001 35.305 48.5001 36.5375C48.5018 37.7958 48.2626 38.9238 47.7826 39.9213C47.3143 40.8963 46.6738 41.6663 45.8613 42.2313C45.0693 42.7809 44.1253 43.0694 43.1613 43.0563C42.5247 43.0579 41.9488 42.9704 41.4338 42.7937C40.9231 42.6187 40.4328 42.3891 39.9713 42.1087C39.5265 41.8336 39.0908 41.5439 38.6651 41.24C38.2657 40.9503 37.8477 40.6873 37.4138 40.4525C36.9812 40.2125 36.496 40.0833 36.0013 40.0762C35.5351 40.0762 35.0638 40.1975 34.5863 40.4512C34.1905 40.6637 33.7738 40.9262 33.3363 41.2387C32.9347 41.5262 32.4984 41.8158 32.0276 42.1075C31.5679 42.3894 31.0782 42.6192 30.5676 42.7925C30.0509 42.9692 29.4768 43.0567 28.8451 43.055C27.8791 43.0698 26.9328 42.7817 26.1388 42.2313C25.3255 41.6646 24.6851 40.8946 24.2176 39.9213C23.7376 38.9246 23.4984 37.7958 23.5001 36.535C23.4951 35.31 23.6876 34.2825 24.0963 33.46C24.4721 32.6866 25.0456 32.0264 25.7588 31.5463C26.5088 31.0429 27.3922 30.665 28.4088 30.4125C29.5576 30.1332 30.7288 29.9562 31.9088 29.8837C33.2088 29.7946 34.5726 29.75 36.0001 29.75Z" stroke="white" stroke-width="2" stroke-linecap="round" stroke-linejoin="round"/>
</svg>
